# xmcd CD database file
# Copyright (C) 1995-1998 Ti Kan
#
# Track frame offsets:
#	150
#	20447
#	40472
#	63002
#	82887
#	101100
#	119550
#	141217
#	158672
#	177972
#
# Disc length: 2635 seconds
#
# Revision: 2
# Processed by: cddbd v1.4b42PL1 Copyright (c) Steve Scherf et al.
# Submitted via: CDex 1.40Beta3
#
DISCID=7e0a490a
DTITLE=Tu Quyen - Doa Hong Cho Em
DYEAR=1900
DGENRE=Blues
TTITLE0=Doa Hong Cho Em
TTITLE1=Khuc TInh Mong Manh
TTITLE2=Co Ua
TTITLE3=TInh Xanh
TTITLE4=Mua Le
TTITLE5=Nhung Buoi Chieu Vang
TTITLE6=Muon
TTITLE7=Buon
TTITLE8=Quan Cafe Vang
TTITLE9=Nuoi Tiec
EXTD=ID3G:   0
EXTT0=
EXTT1=
EXTT2=
EXTT3=
EXTT4=
EXTT5=
EXTT6=
EXTT7=
EXTT8=
EXTT9=
PLAYORDER=
